<?xml version="1.0" standalone="no"?>
<!DOCTYPE svg PUBLIC "-//W3C//DTD SVG 20010904//EN"
 "http://www.w3.org/TR/2001/REC-SVG-20010904/DTD/svg10.dtd">
<svg version="1.0" xmlns="http://www.w3.org/2000/svg"
 width="512.000000pt" height="512.000000pt" viewBox="0 0 512.000000 512.000000"
 preserveAspectRatio="xMidYMid meet">

<g transform="translate(0.000000,512.000000) scale(0.100000,-0.100000)"
fill="#000000" stroke="none">
<path d="M600 4365 l0 -755 -33 0 c-55 0 -184 -37 -250 -72 -81 -42 -203 -164
-245 -245 -18 -34 -41 -96 -52 -139 -19 -74 -20 -114 -20 -974 0 -860 1 -900
20 -974 29 -113 73 -190 160 -276 86 -87 163 -131 276 -160 73 -19 112 -20
661 -20 320 0 583 -2 583 -4 0 -2 -11 -58 -25 -124 -29 -145 -48 -185 -114
-244 -83 -75 -104 -78 -477 -78 l-324 0 0 -150 0 -150 1500 0 1500 0 0 150 0
150 -324 0 c-276 0 -331 2 -376 17 -62 20 -142 88 -171 146 -17 33 -69 242
-69 277 0 7 203 10 583 10 549 0 588 1 661 20 113 29 190 73 276 160 87 86
131 163 160 276 19 72 20 112 20 566 l0 488 300 0 300 0 0 1430 0 1430 -2260
0 -2260 0 0 -755z m4220 -675 l0 -1130 -150 0 -150 0 0 258 c0 225 -3 269 -20
336 -29 113 -73 190 -160 276 -86 87 -163 131 -276 160 -75 19 -116 20 -1621
20 l-1543 0 0 605 0 605 1960 0 1960 0 0 -1130z m-779 -406 c66 -31 114 -78
146 -142 l28 -57 0 -605 0 -605 -28 -57 c-32 -64 -80 -111 -146 -142 l-46 -21
-1735 0 -1735 0 -57 28 c-64 32 -111 80 -142 146 -20 45 -21 61 -24 621 -2
395 0 591 8 626 22 102 93 181 193 216 49 17 141 17 1772 15 l1720 -2 46 -21z
m-3584 -1915 c74 -18 127 -19 1803 -19 1676 0 1729 1 1803 19 41 11 94 29 118
41 l42 22 -5 -80 c-8 -133 -67 -225 -177 -276 l-46 -21 -1735 0 -1735 0 -46
21 c-110 51 -169 143 -177 276 l-5 80 42 -22 c24 -12 77 -30 118 -41z m2090
-788 c18 -90 44 -188 58 -218 14 -31 25 -57 25 -59 0 -2 -166 -4 -370 -4 -203
0 -370 2 -370 4 0 2 11 28 25 58 14 30 39 124 56 209 16 85 32 160 34 167 4
10 60 12 257 10 l252 -3 33 -164z"/>
</g>
</svg>
