<?xml version="1.0" standalone="no"?>
<!DOCTYPE svg PUBLIC "-//W3C//DTD SVG 20010904//EN"
 "http://www.w3.org/TR/2001/REC-SVG-20010904/DTD/svg10.dtd">
<svg version="1.0" xmlns="http://www.w3.org/2000/svg"
 width="512.000000pt" height="512.000000pt" viewBox="0 0 512.000000 512.000000"
 preserveAspectRatio="xMidYMid meet">

<g transform="translate(0.000000,512.000000) scale(0.100000,-0.100000)"
fill="#000000" stroke="none">
<path d="M2495 4786 c-37 -17 -70 -52 -84 -89 -6 -16 -11 -103 -11 -202 l0
-173 -109 -4 c-118 -3 -141 -12 -185 -72 -29 -39 -29 -133 0 -172 44 -60 67
-69 185 -72 l109 -4 0 -1438 0 -1438 -109 -4 c-118 -3 -141 -12 -185 -72 -29
-39 -29 -133 0 -172 44 -60 67 -69 184 -72 l109 -4 3 -188 c3 -206 6 -215 72
-264 39 -29 133 -29 172 0 66 49 69 58 72 265 l3 189 989 2 c981 3 989 3 1016
24 15 11 37 33 48 48 l21 27 0 1659 0 1659 -21 27 c-11 15 -33 37 -48 48 -27
21 -35 21 -1016 24 l-989 2 -3 189 c-3 207 -6 216 -70 264 -34 25 -113 32
-153 13z m1985 -2226 l0 -1440 -880 0 -880 0 0 1440 0 1440 880 0 880 0 0
-1440z"/>
<path d="M415 4306 c-41 -18 -83 -69 -90 -109 -4 -18 -5 -118 -3 -224 3 -210
5 -218 72 -267 39 -29 133 -29 172 0 60 44 69 67 72 184 l4 108 108 4 c117 3
140 12 184 72 29 39 29 133 0 172 -50 67 -55 69 -282 71 -157 2 -214 0 -237
-11z"/>
<path d="M1215 4306 c-67 -29 -105 -106 -91 -181 9 -47 59 -102 104 -116 24
-6 136 -9 314 -7 261 3 278 4 304 24 53 39 69 71 69 134 0 63 -16 95 -69 134
-26 20 -42 21 -314 23 -223 2 -294 0 -317 -11z"/>
<path d="M414 3471 c-23 -10 -52 -34 -65 -52 l-24 -34 0 -312 c0 -300 1 -313
21 -340 11 -15 36 -39 55 -51 28 -20 44 -23 92 -20 46 4 63 10 88 34 57 53 59
66 59 381 0 279 -1 289 -23 328 -24 43 -92 85 -137 85 -14 0 -43 -9 -66 -19z"/>
<path d="M415 2451 c-11 -5 -31 -19 -44 -31 -48 -46 -51 -69 -51 -377 0 -261
2 -292 19 -323 55 -104 198 -116 269 -22 l27 35 3 291 c2 181 -1 304 -7 326
-6 20 -26 51 -46 70 -30 29 -42 34 -92 37 -32 1 -67 -1 -78 -6z"/>
<path d="M415 1426 c-41 -18 -83 -69 -90 -109 -4 -18 -5 -118 -3 -224 3 -210
5 -218 72 -267 26 -20 41 -21 246 -21 241 0 243 1 294 69 29 39 29 133 0 172
-44 60 -67 69 -184 72 l-108 4 -4 108 c-3 117 -12 140 -70 183 -33 25 -113 32
-153 13z"/>
<path d="M1215 1106 c-67 -29 -105 -106 -91 -181 9 -47 59 -102 104 -116 24
-6 136 -9 314 -7 261 3 278 4 304 24 53 39 69 71 69 134 0 63 -16 95 -69 134
-26 20 -42 21 -314 23 -223 2 -294 0 -317 -11z"/>
</g>
</svg>
